<svg width="55" height="55" viewBox="0 0 55 55" fill="none" xmlns="http://www.w3.org/2000/svg">
<path d="M54.4521 16.5001C54.4521 16.5001 53.915 12.7081 52.2607 11.0431C50.166 8.85165 47.8242 8.84091 46.75 8.71201C39.0586 8.15341 27.5107 8.15341 27.5107 8.15341H27.4893C27.4893 8.15341 15.9414 8.15341 8.25 8.71201C7.17578 8.84091 4.83398 8.85165 2.73926 11.0431C1.08496 12.7081 0.558594 16.5001 0.558594 16.5001C0.558594 16.5001 0 20.9581 0 25.4054V29.5733C0 34.0206 0.547852 38.4786 0.547852 38.4786C0.547852 38.4786 1.08496 42.2706 2.72852 43.9356C4.82324 46.127 7.57324 46.0519 8.79785 46.2882C13.2021 46.7071 27.5 46.836 27.5 46.836C27.5 46.836 39.0586 46.8145 46.75 46.2667C47.8242 46.1378 50.166 46.127 52.2607 43.9356C53.915 42.2706 54.4521 38.4786 54.4521 38.4786C54.4521 38.4786 55 34.0313 55 29.5733V25.4054C55 20.9581 54.4521 16.5001 54.4521 16.5001ZM21.8174 34.6329V19.1749L36.6738 26.9308L21.8174 34.6329Z" fill="white"/>
</svg>
